<svg   id="chart"   width="830"   height="312"   viewBox="0 0 830 312"   xmlns="http://www.w3.org/2000/svg" >      <path d="M 0,309.64576522975847 C 6.6000000000000005,308.8542288124932 19.799999999999997,308.463461939933 33,305.68808314343227 C 46.2,302.91270434693155 52.8,299.33445251622834 66,295.76887124725494 C 79.2,292.20328997828153 85.8,289.9752254237713 99,287.8601767985652 C 112.2,285.7451281733591 118.8,288.8652713720809 132,285.1936281212243 C 145.2,281.52198487036776 151.8,277.7321186640621 165,269.5019605442825 C 178.2,261.2718024245029 184.8,244.5349747594002 198,244.0428375223262 C 211.2,243.55070028525222 217.8,269.44114209081977 231,267.0412743589126 C 244.2,264.6414066270054 250.8,236.99586697082228 264,232.04349886279013 C 277.2,227.09113075475798 283.8,249.14550687062146 297,242.27943381875184 C 310.2,235.41336076688222 316.8,205.69825675812 330,197.71313360344197 C 343.2,189.72801044876394 349.8,200.42188461372177 363,202.35381804536166 C 376.2,204.28575147700155 382.8,202.53600640844996 396,207.37280076164149 C 409.2,212.209595114833 415.8,238.01489700299427 429,226.53778981131924 C 442.2,215.0606826196442 448.8,154.0781110126102 462,149.98726480326638 C 475.2,145.89641859392256 481.8,205.22463520905248 495,206.08355876460018 C 508.2,206.9424823201479 514.8,169.23208309709136 528,154.28188258100488 C 541.2,139.3316820649184 547.8,127.72070164494312 561,131.3325561841678 C 574.2,134.94441072339248 580.8,161.7981961143873 594,172.34115527712828 C 607.2,182.88411443986925 613.8,201.37037921830674 627,184.04735199787262 C 640.2,166.7243247774385 646.8,91.5264289530293 660,85.72601917495768 C 673.2,79.92560939688607 679.8,146.9416145601527 693,155.0453031075146 C 706.2,163.1489916548765 712.8,148.0296617720864 726,126.24446191176725 C 739.2,104.45926205144808 745.8,63.324988865994044 759,46.119303805918776 C 772.2,28.913618745843507 778.8,19.442220034137794 792,40.216036611390905 C 805.2,60.98985318864402 818.4,128.03391667602565 825,149.98838669218435,L 830 312,L 0 312Z" fill="#f7c5451a" />   <path d="M 0,309.64576522975847 C 6.6000000000000005,308.8542288124932 19.799999999999997,308.463461939933 33,305.68808314343227 C 46.2,302.91270434693155 52.8,299.33445251622834 66,295.76887124725494 C 79.2,292.20328997828153 85.8,289.9752254237713 99,287.8601767985652 C 112.2,285.7451281733591 118.8,288.8652713720809 132,285.1936281212243 C 145.2,281.52198487036776 151.8,277.7321186640621 165,269.5019605442825 C 178.2,261.2718024245029 184.8,244.5349747594002 198,244.0428375223262 C 211.2,243.55070028525222 217.8,269.44114209081977 231,267.0412743589126 C 244.2,264.6414066270054 250.8,236.99586697082228 264,232.04349886279013 C 277.2,227.09113075475798 283.8,249.14550687062146 297,242.27943381875184 C 310.2,235.41336076688222 316.8,205.69825675812 330,197.71313360344197 C 343.2,189.72801044876394 349.8,200.42188461372177 363,202.35381804536166 C 376.2,204.28575147700155 382.8,202.53600640844996 396,207.37280076164149 C 409.2,212.209595114833 415.8,238.01489700299427 429,226.53778981131924 C 442.2,215.0606826196442 448.8,154.0781110126102 462,149.98726480326638 C 475.2,145.89641859392256 481.8,205.22463520905248 495,206.08355876460018 C 508.2,206.9424823201479 514.8,169.23208309709136 528,154.28188258100488 C 541.2,139.3316820649184 547.8,127.72070164494312 561,131.3325561841678 C 574.2,134.94441072339248 580.8,161.7981961143873 594,172.34115527712828 C 607.2,182.88411443986925 613.8,201.37037921830674 627,184.04735199787262 C 640.2,166.7243247774385 646.8,91.5264289530293 660,85.72601917495768 C 673.2,79.92560939688607 679.8,146.9416145601527 693,155.0453031075146 C 706.2,163.1489916548765 712.8,148.0296617720864 726,126.24446191176725 C 739.2,104.45926205144808 745.8,63.324988865994044 759,46.119303805918776 C 772.2,28.913618745843507 778.8,19.442220034137794 792,40.216036611390905 C 805.2,60.98985318864402 818.4,128.03391667602565 825,149.98838669218435" fill="none" stroke="#f7c545" stroke-width="2px" />   <g>   		<circle cx="0" cy="309.64576522975847" r="6" fill="#f7c545" />,		<circle cx="33" cy="305.68808314343227" r="6" fill="#f7c545" />,		<circle cx="66" cy="295.76887124725494" r="6" fill="#f7c545" />,		<circle cx="99" cy="287.8601767985652" r="6" fill="#f7c545" />,		<circle cx="132" cy="285.1936281212243" r="6" fill="#f7c545" />,		<circle cx="165" cy="269.5019605442825" r="6" fill="#f7c545" />,		<circle cx="198" cy="244.0428375223262" r="6" fill="#f7c545" />,		<circle cx="231" cy="267.0412743589126" r="6" fill="#f7c545" />,		<circle cx="264" cy="232.04349886279013" r="6" fill="#f7c545" />,		<circle cx="297" cy="242.27943381875184" r="6" fill="#f7c545" />,		<circle cx="330" cy="197.71313360344197" r="6" fill="#f7c545" />,		<circle cx="363" cy="202.35381804536166" r="6" fill="#f7c545" />,		<circle cx="396" cy="207.37280076164149" r="6" fill="#f7c545" />,		<circle cx="429" cy="226.53778981131924" r="6" fill="#f7c545" />,		<circle cx="462" cy="149.98726480326638" r="6" fill="#f7c545" />,		<circle cx="495" cy="206.08355876460018" r="6" fill="#f7c545" />,		<circle cx="528" cy="154.28188258100488" r="6" fill="#f7c545" />,		<circle cx="561" cy="131.3325561841678" r="6" fill="#f7c545" />,		<circle cx="594" cy="172.34115527712828" r="6" fill="#f7c545" />,		<circle cx="627" cy="184.04735199787262" r="6" fill="#f7c545" />,		<circle cx="660" cy="85.72601917495768" r="6" fill="#f7c545" />,		<circle cx="693" cy="155.0453031075146" r="6" fill="#f7c545" />,		<circle cx="726" cy="126.24446191176725" r="6" fill="#f7c545" />,		<circle cx="759" cy="46.119303805918776" r="6" fill="#f7c545" />,		<circle cx="792" cy="40.216036611390905" r="6" fill="#f7c545" />,		<circle cx="825" cy="149.98838669218435" r="6" fill="#f7c545" />   </g> </svg>